<svg xmlns="http://www.w3.org/2000/svg" width="569.025" height="429.539" viewBox="0 0 569.025 429.539">
  <g id="undraw_building_websites_i78t" transform="translate(0 0)">
    <path id="Path_2" data-name="Path 2" d="M660.386,127.366c4.881,10.387-5.462,13.329-17.309,18.9s-20.713,11.651-25.594,1.265-8.841-31,7.919-38.878C642.74,100.5,655.506,116.979,660.386,127.366Z" transform="translate(-332.476 -106.46)" fill="#2f2e41"/>
    <circle id="Ellipse_5" data-name="Ellipse 5" cx="15.949" cy="15.949" r="15.949" transform="translate(287.79 9.434)" fill="#ffb8b8"/>
    <path id="Path_3" data-name="Path 3" d="M739.736,243.176c-.552-.721-1.1-1.429-1.662-2.117q-1.081-1.344-2.175-2.6c-8.266-9.539-17.059-15.546-26.741-16.189h-.013l-.143-.013-19.293,18.806-6.559,6.39.143.351,3.539,8.812H748.84a152.487,152.487,0,0,0-9.1-13.435Z" transform="translate(-356.982 -147.061)" fill="#2f2e41"/>
    <path id="Path_4" data-name="Path 4" d="M621.034,141.7h0l5.709-2.683-.8-8.236,3.818,6.816,2.729-1.282-.464-4.8,2.227,3.976,20.276-9.528h0a16.884,16.884,0,0,0-22.461-8.1l-2.939,1.381A16.884,16.884,0,0,0,621.034,141.7Z" transform="translate(-334.639 -109.892)" fill="#2f2e41"/>
    <path id="Path_5" data-name="Path 5" d="M639.787,483.188H306.767a10.727,10.727,0,0,1-10.715-10.715V272.368a7.859,7.859,0,0,1,7.849-7.85H642.516A8,8,0,0,1,650.5,272.5V472.473A10.727,10.727,0,0,1,639.787,483.188Z" transform="translate(-221.253 -161.881)" fill="#f2f2f2"/>
    <path id="Path_6" data-name="Path 6" d="M322.942,481.833H635.183a10.39,10.39,0,0,0,10.39-10.39V301.6a10.39,10.39,0,0,0-10.39-10.39H322.942a10.39,10.39,0,0,0-10.39,10.39V471.444A10.39,10.39,0,0,0,322.942,481.833Z" transform="translate(-227.038 -171.241)" fill="#fff"/>
    <path id="Path_7" data-name="Path 7" d="M650.271,266.915H295.82V261.46a10.762,10.762,0,0,1,10.754-10.747H639.517a10.762,10.762,0,0,1,10.754,10.747Z" transform="translate(-221.172 -157.04)" fill="#14213d"/>
    <circle id="Ellipse_6" data-name="Ellipse 6" cx="2.782" cy="2.782" r="2.782" transform="translate(91.41 99.008)" fill="#fff"/>
    <circle id="Ellipse_7" data-name="Ellipse 7" cx="2.782" cy="2.782" r="2.782" transform="translate(101.968 99.008)" fill="#fff"/>
    <circle id="Ellipse_8" data-name="Ellipse 8" cx="2.782" cy="2.782" r="2.782" transform="translate(112.526 99.008)" fill="#fff"/>
    <path id="Path_8" data-name="Path 8" d="M565.566,506.3H537.643a6.176,6.176,0,0,1-6.169-6.169V472.209a6.176,6.176,0,0,1,6.169-6.169h27.923a6.176,6.176,0,0,1,6.169,6.169v27.923A6.176,6.176,0,0,1,565.566,506.3Zm-27.923-38.962a4.876,4.876,0,0,0-4.87,4.87v27.923a4.876,4.876,0,0,0,4.87,4.87h27.923a4.876,4.876,0,0,0,4.87-4.87V472.209a4.876,4.876,0,0,0-4.87-4.87Z" transform="translate(-303.8 -232.541)" fill="#ccc"/>
    <path id="Path_9" data-name="Path 9" d="M565.306,502.716H548.422a1.95,1.95,0,0,1-1.948-1.948v-20.78a1.95,1.95,0,0,1,1.948-1.948h12.234a1.953,1.953,0,0,1,1.22.43l4.65,3.736a1.938,1.938,0,0,1,.728,1.518v17.043A1.95,1.95,0,0,1,565.306,502.716Zm-16.884-23.377a.65.65,0,0,0-.649.649v20.78a.65.65,0,0,0,.649.649h16.884a.65.65,0,0,0,.649-.649V483.724a.646.646,0,0,0-.242-.506l-4.65-3.737a.651.651,0,0,0-.406-.143Z" transform="translate(-309.059 -236.749)" fill="#ccc"/>
    <path id="Path_10" data-name="Path 10" d="M564.513,491.339h-10.39a.649.649,0,0,1,0-1.3h10.39a.649.649,0,0,1,0,1.3Z" transform="translate(-311.513 -240.956)" fill="#ccc"/>
    <path id="Path_11" data-name="Path 11" d="M564.513,497.339h-10.39a.649.649,0,0,1,0-1.3h10.39a.649.649,0,0,1,0,1.3Z" transform="translate(-311.513 -243.06)" fill="#ccc"/>
    <path id="Path_12" data-name="Path 12" d="M564.513,503.339h-10.39a.649.649,0,0,1,0-1.3h10.39a.649.649,0,0,1,0,1.3Z" transform="translate(-311.513 -245.164)" fill="#ccc"/>
    <path id="Path_13" data-name="Path 13" d="M667.566,506.3H639.643a6.176,6.176,0,0,1-6.169-6.169V472.209a6.176,6.176,0,0,1,6.169-6.169h27.923a6.176,6.176,0,0,1,6.169,6.169v27.923A6.176,6.176,0,0,1,667.566,506.3Zm-27.923-38.962a4.876,4.876,0,0,0-4.87,4.87v27.923a4.876,4.876,0,0,0,4.87,4.87h27.923a4.876,4.876,0,0,0,4.87-4.87V472.209a4.876,4.876,0,0,0-4.87-4.87Z" transform="translate(-339.564 -232.541)" fill="#ccc"/>
    <path id="Path_14" data-name="Path 14" d="M667.6,500.326H649.422a1.95,1.95,0,0,1-1.948-1.948v-10.39a1.95,1.95,0,0,1,1.948-1.948H667.6a1.95,1.95,0,0,1,1.948,1.948v10.39A1.95,1.95,0,0,1,667.6,500.326Zm-18.182-12.987a.65.65,0,0,0-.649.649v10.39a.65.65,0,0,0,.649.649H667.6a.65.65,0,0,0,.649-.649v-10.39a.65.65,0,0,0-.649-.649Z" transform="translate(-344.473 -239.554)" fill="#ccc"/>
    <path id="Path_15" data-name="Path 15" d="M658.513,495.6a1.951,1.951,0,0,1-1.032-.294l-9.7-6.063a.65.65,0,0,1,.689-1.1l9.7,6.063a.653.653,0,0,0,.688,0l9.7-6.063a.65.65,0,0,1,.689,1.1l-9.7,6.063a1.951,1.951,0,0,1-1.033.294Z" transform="translate(-344.473 -240.255)" fill="#ccc"/>
    <path id="Path_16" data-name="Path 16" d="M463.566,506.3H435.643a6.176,6.176,0,0,1-6.169-6.169V472.209a6.176,6.176,0,0,1,6.169-6.169h27.923a6.176,6.176,0,0,1,6.169,6.169v27.923A6.176,6.176,0,0,1,463.566,506.3Zm-27.923-38.962a4.876,4.876,0,0,0-4.87,4.87v27.923a4.876,4.876,0,0,0,4.87,4.87h27.923a4.876,4.876,0,0,0,4.87-4.87V472.209a4.876,4.876,0,0,0-4.87-4.87Z" transform="translate(-268.035 -232.541)" fill="#ccc"/>
    <path id="Path_17" data-name="Path 17" d="M463.6,500.326H445.422a1.95,1.95,0,0,1-1.948-1.948v-10.39a1.95,1.95,0,0,1,1.948-1.948H463.6a1.95,1.95,0,0,1,1.948,1.948v10.39A1.95,1.95,0,0,1,463.6,500.326Zm-18.182-12.987a.65.65,0,0,0-.649.649v10.39a.65.65,0,0,0,.649.649H463.6a.65.65,0,0,0,.649-.649v-10.39a.65.65,0,0,0-.649-.649Z" transform="translate(-272.944 -239.554)" fill="#ccc"/>
    <path id="Path_18" data-name="Path 18" d="M462.279,502.956H449.211a1.3,1.3,0,0,1-1.125-1.948l3.936-6.818a1.3,1.3,0,0,1,2.25,0l2.542,4.4,1.473-2.551a1.3,1.3,0,0,1,2.25,0l2.867,4.966a1.3,1.3,0,0,1-1.125,1.948Zm0-1.3h0l-2.867-4.966-2.035,3.525a.649.649,0,0,1-.562.325h0a.649.649,0,0,1-.562-.325l-3.1-5.378-3.936,6.818Z" transform="translate(-274.5 -242.183)" fill="#ccc"/>
    <circle id="Ellipse_9" data-name="Ellipse 9" cx="1.299" cy="1.299" r="1.299" transform="translate(187.414 249.083)" fill="#ccc"/>
    <path id="Path_19" data-name="Path 19" d="M762.481,631.569H754.52l-3.787-30.707h11.75Z" transform="translate(-263.232 -210.682)" fill="#ffb8b8"/>
    <path id="Path_20" data-name="Path 20" d="M938.955,760.923h-25.67V760.6a9.991,9.991,0,0,1,9.991-9.991h15.679Z" transform="translate(-437.675 -332.319)" fill="#2f2e41"/>
    <path id="Path_21" data-name="Path 21" d="M812.481,631.569H804.52l-3.787-30.707h11.75Z" transform="translate(-280.763 -210.682)" fill="#ffb8b8"/>
    <path id="Path_22" data-name="Path 22" d="M988.959,760.923H963.29V760.6a9.991,9.991,0,0,1,9.992-9.991H988.96Z" transform="translate(-455.208 -332.319)" fill="#2f2e41"/>
    <path id="Path_23" data-name="Path 23" d="M972.429,670.38l-7.373-2.243A2.918,2.918,0,0,1,963,665.648L956.126,600.5a.312.312,0,0,0-.311-.29.3.3,0,0,0-.332.266L943.97,663.593a2.922,2.922,0,0,1-3.464,2.337l-9.423-1.941a2.933,2.933,0,0,1-2.326-3.06l7-103.453,47.493-5.125L976.2,667.763a2.92,2.92,0,0,1-3.767,2.618Z" transform="translate(-443.098 -262.805)" fill="#2f2e41"/>
    <circle id="Ellipse_10" data-name="Ellipse 10" cx="15.949" cy="15.949" r="15.949" transform="translate(513.337 172.683)" fill="#ffb8b8"/>
    <path id="Path_24" data-name="Path 24" d="M939.433,514.977l10.3-64.84A24.583,24.583,0,0,1,980.9,430.4h0a24.509,24.509,0,0,1,17.274,28.093L987.4,516.4Z" transform="translate(-446.843 -219.697)" fill="#14213d"/>
    <path id="Path_25" data-name="Path 25" d="M997.2,562.541a6.53,6.53,0,0,0,1.134-9.948l10.647-20.618-11.99,1.28-8.272,19.383a6.565,6.565,0,0,0,8.481,9.9Z" transform="translate(-463.517 -255.66)" fill="#ffb8b8"/>
    <path id="Path_26" data-name="Path 26" d="M1002.684,518.512a2.926,2.926,0,0,1-1.576-.747L997.034,514a2.932,2.932,0,0,1-.709-3.282l8.141-19.3-1.155-38.131a9.414,9.414,0,1,1,18.654,2.545l1.975,23.97a30.113,30.113,0,0,1-5.8,20.388l-12.7,17.164a2.925,2.925,0,0,1-2.075,1.171A2.888,2.888,0,0,1,1002.684,518.512Z" transform="translate(-466.712 -225.215)" fill="#14213d"/>
    <path id="Path_27" data-name="Path 27" d="M854.441,379.353a6.53,6.53,0,0,0,8.719,4.923L878,402.12l3.5-11.54L866.868,375.4a6.565,6.565,0,0,0-12.427,3.949Z" transform="translate(-417.001 -199.41)" fill="#ffb8b8"/>
    <path id="Path_28" data-name="Path 28" d="M872.176,392.958a2.926,2.926,0,0,1,1.3-1.16l5.055-2.284a2.932,2.932,0,0,1,3.3.627l14.6,15.021,35.563,13.8a9.414,9.414,0,1,1-9.616,16.186l-22.843-7.527a30.114,30.114,0,0,1-16.512-13.294l-10.856-18.384a2.925,2.925,0,0,1-.27-2.367,2.89,2.89,0,0,1,.28-.622Z" transform="translate(-423.115 -205.618)" fill="#14213d"/>
    <path id="Path_29" data-name="Path 29" d="M828.192,375.652l-.649,20.78L815.58,417.219l9.989-23.165Z" transform="translate(-285.969 -131.716)" opacity="0.1"/>
    <path id="Path_30" data-name="Path 30" d="M982.956,389.274a4.171,4.171,0,0,1-4.565-3.053,6.341,6.341,0,0,0-4.514-4.723c-2.926-.669-6.5.709-8.645-1.508a4.31,4.31,0,0,1-1.023-3.794,8.712,8.712,0,0,1,3.613-5.083,22.119,22.119,0,0,1,12.251-4.578,43.954,43.954,0,0,1,6.9.343,30.526,30.526,0,0,1,7.055,1.289,16.608,16.608,0,0,1,10.391,12.13,19.174,19.174,0,0,1-3.933,15.669,20.584,20.584,0,0,1-7.9,6.012,3.081,3.081,0,0,1-2.342.119c-1.92-.764-1.607-3.142-.731-4.729.937-1.7,2.379-3.342,1.625-5.408a4.093,4.093,0,0,0-2.031-2.186c-1.909-.974-4.044-.743-6.1-.506Z" transform="translate(-455.497 -197.645)" fill="#2f2e41"/>
    <path id="Path_31" data-name="Path 31" d="M733.919,381.071H536.512A10.727,10.727,0,0,1,525.8,370.356V328.148a10.727,10.727,0,0,1,10.715-10.715H733.919a10.727,10.727,0,0,1,10.715,10.715v42.209A10.727,10.727,0,0,1,733.919,381.071Z" transform="translate(-301.809 -180.434)" fill="#fff"/>
    <path id="Path_32" data-name="Path 32" d="M733.744,381.22H536.336A11.052,11.052,0,0,1,525.3,370.181V327.972a11.052,11.052,0,0,1,11.039-11.039H733.744a11.052,11.052,0,0,1,11.039,11.039v42.209A11.052,11.052,0,0,1,733.744,381.22ZM536.336,318.232a9.751,9.751,0,0,0-9.74,9.741v42.209a9.751,9.751,0,0,0,9.74,9.741H733.744a9.751,9.751,0,0,0,9.74-9.74V327.972a9.752,9.752,0,0,0-9.74-9.741Z" transform="translate(-301.634 -180.259)" fill="#3f3d56"/>
    <path id="Path_33" data-name="Path 33" d="M722.866,375.941H573.512A10.727,10.727,0,0,1,562.8,365.226V343.148a10.727,10.727,0,0,1,10.715-10.715H722.866a10.727,10.727,0,0,1,10.715,10.715v22.078A10.727,10.727,0,0,1,722.866,375.941Z" transform="translate(-314.782 -185.694)" fill="#f2f2f2"/>
    <circle id="Ellipse_11" data-name="Ellipse 11" cx="12.814" cy="12.814" r="12.814" transform="translate(278.056 152.72)" fill="#fca311"/>
    <path id="Path_34" data-name="Path 34" d="M724.256,379,706.17,363.835,688.4,348.928a2.6,2.6,0,0,0-3.346.006L667.333,363.91l-4.327,3.658L656.48,362.1l-19.83-16.631a2.6,2.6,0,0,0-3.346.006l-19.765,16.707-20.076,16.97a.649.649,0,0,0,.42,1.145l41.161-.079,13.029-.025-.127.108,38.837-.075,37.057-.071a.649.649,0,0,0,.416-1.147Z" transform="translate(-325.454 -190.05)" fill="#3f3d56"/>
    <path id="Path_35" data-name="Path 35" d="M988.468,767.232H863.789a.649.649,0,1,1,0-1.3H988.468a.649.649,0,0,1,0,1.3Z" transform="translate(-420.093 -337.693)" fill="#ccc"/>
    <path id="Path_36" data-name="Path 36" d="M749.631,211.665a7.287,7.287,0,0,0-4.708-3.312,6.689,6.689,0,0,0-1.078-.136L694.37,163.982a5.854,5.854,0,0,0-3.656-1.747,4.982,4.982,0,0,0-.825-.026,5.88,5.88,0,0,0-3.87,10.052l18.942,16.513,31.1,27.111a7.738,7.738,0,0,0,.227,1.513,7.316,7.316,0,0,0,6.279,5.435,7.2,7.2,0,0,0,3.929-.649,7.406,7.406,0,0,0,2.52-1.929c.071-.084.136-.162.2-.253a7.333,7.333,0,0,0,.409-8.338Z" transform="translate(-357.377 -126.006)" fill="#ffb8b8"/>
    <path id="Path_37" data-name="Path 37" d="M647.377,265.292l-.461-18.741L646.526,231l-.266-10.883-.526-21.215a5.874,5.874,0,0,0-10.2-3.409,4.5,4.5,0,0,0-.487.623,5.8,5.8,0,0,0-1.013,3.929L635.188,231l.578,15.552.74,19.838a7.821,7.821,0,0,0-.578.916,7.343,7.343,0,1,0,11.448-2.013Z" transform="translate(-339.749 -137.001)" fill="#ffb8b8"/>
    <path id="Path_38" data-name="Path 38" d="M692.251,200.986l-4.591-12.435-7.429-20.143a10.394,10.394,0,0,0-6.461-6.286c-.117-.039-.24-.078-.357-.11a10.38,10.38,0,0,0-8.6,1.182l-25.02,15.871a10.45,10.45,0,0,0-3.422,14.124A179.406,179.406,0,0,0,646.587,208.9c2.916,3.968,8.344,4.39,9.286,10.883h18.448L693,203.012Z" transform="translate(-340.075 -125.782)" fill="#e5e5e5"/>
    <circle id="Ellipse_12" data-name="Ellipse 12" cx="15.047" cy="15.047" r="15.047" transform="translate(50.646 197.09)" fill="#a0616a"/>
    <path id="Path_39" data-name="Path 39" d="M318.793,416.405q.222.177.431.375a6.74,6.74,0,0,1-.271,10.055,6.325,6.325,0,0,1-.528.4l1.018,34.381a5.235,5.235,0,0,1-3.6,5.109l-.062.013-27.915,2.973a5.778,5.778,0,1,1-1.118-11.5l19.9-1.752,3.441-29.774a6.422,6.422,0,0,1-.631-.643,6.74,6.74,0,0,1,9.336-9.632Z" transform="translate(-216.16 -214.626)" fill="#a0616a"/>
    <path id="Path_40" data-name="Path 40" d="M139.327,633.531h7.511l3.573-28.97H139.326Z" transform="translate(-48.852 -211.979)" fill="#a0616a"/>
    <path id="Path_41" data-name="Path 41" d="M317.242,751.858h14.792a9.426,9.426,0,0,1,9.426,9.426v.306H317.242Z" transform="translate(-228.683 -332.758)" fill="#2f2e41"/>
    <path id="Path_42" data-name="Path 42" d="M24.366,619.741l6.453,3.842L48.711,600.52l-9.525-5.671Z" transform="translate(-8.544 -208.574)" fill="#a0616a"/>
    <path id="Path_43" data-name="Path 43" d="M201.939,734.889l12.709,7.567h0a9.426,9.426,0,0,1,3.277,12.922l-.157.263-20.808-12.39Z" transform="translate(-186.508 -326.808)" fill="#2f2e41"/>
    <path id="Path_44" data-name="Path 44" d="M291.462,665.288h-8.411a2.752,2.752,0,0,1-2.741-2.465l-8.478-79.7a.919.919,0,0,0-1.751-.281l-15.3,33.87L227.7,660.869a2.77,2.77,0,0,1-3.46,1.082l-10.819-4.76a2.758,2.758,0,0,1-1.256-3.938l24.895-41.684,7.635-35.121c-2.4-15.231,7.893-37.875,8-38.1l.051-.111L281.1,527.152l.142.174c11.183,36.7,18,76.192,12.966,135.437a2.776,2.776,0,0,1-2.748,2.526Z" transform="translate(-191.703 -253.969)" fill="#2f2e41"/>
    <path id="Path_45" data-name="Path 45" d="M266.37,519.856l-.132-.278c-.063-.133-6.368-13.431-11.229-27.645a20.965,20.965,0,0,1,1.454-16.8,21.194,21.194,0,0,1,13.515-10.393h0a21.219,21.219,0,0,1,24.629,12.708c3.855,9.641,2.627,19.932,1.47,28.025l-.023.162-.147.071Z" transform="translate(-206.471 -231.879)" fill="#3f3d56"/>
    <path id="Path_46" data-name="Path 46" d="M297.223,413.2H273.33V402.787c5.244-2.083,10.376-3.855,13.478,0A10.415,10.415,0,0,1,297.223,413.2Z" transform="translate(-213.286 -209.565)" fill="#2f2e41"/>
    <path id="Path_47" data-name="Path 47" d="M261.422,401.185c-14.284,0-18.281,17.9-18.281,28,0,5.633,2.547,7.648,6.55,8.329l1.414-7.54,3.311,7.864c1.124.006,2.306-.016,3.53-.039l1.123-2.312,2.5,2.27c10.027.015,18.131,1.477,18.131-8.573C279.7,419.089,276.2,401.185,261.422,401.185Z" transform="translate(-202.7 -209.801)" fill="#2f2e41"/>
    <path id="Path_48" data-name="Path 48" d="M306.192,767.232H181.513a.649.649,0,1,1,0-1.3H306.192a.649.649,0,1,1,0,1.3Z" transform="translate(-180.864 -337.693)" fill="#ccc"/>
    <path id="Path_49" data-name="Path 49" d="M359.066,417.194H331.143a6.176,6.176,0,0,1-6.169-6.169V383.1a6.176,6.176,0,0,1,6.169-6.169h27.923a6.176,6.176,0,0,1,6.169,6.169v27.923A6.176,6.176,0,0,1,359.066,417.194Z" transform="translate(-231.394 -201.297)" fill="#fff"/>
    <path id="Path_50" data-name="Path 50" d="M359.066,417.194H331.143a6.176,6.176,0,0,1-6.169-6.169V383.1a6.176,6.176,0,0,1,6.169-6.169h27.923a6.176,6.176,0,0,1,6.169,6.169v27.923A6.176,6.176,0,0,1,359.066,417.194Zm-27.923-38.962a4.876,4.876,0,0,0-4.87,4.87v27.923a4.876,4.876,0,0,0,4.87,4.87h27.923a4.876,4.876,0,0,0,4.87-4.87V383.1a4.876,4.876,0,0,0-4.87-4.87Z" transform="translate(-231.394 -201.297)" fill="#3f3d56"/>
    <path id="Path_51" data-name="Path 51" d="M359.1,411.966H340.922a1.95,1.95,0,0,1-1.948-1.948V396.381a1.95,1.95,0,0,1,1.948-1.948h5.118a1.936,1.936,0,0,1,1.659.927l1.427,2.32H359.1a1.95,1.95,0,0,1,1.948,1.948v10.39a1.95,1.95,0,0,1-1.948,1.948Z" transform="translate(-236.303 -207.433)" fill="#fca311"/>
    <path id="Path_52" data-name="Path 52" d="M340.31,430.153q.136.249.252.513a6.741,6.741,0,0,1-4.151,9.162,6.305,6.305,0,0,1-.642.162l-12.4,32.082a5.235,5.235,0,0,1-5.3,3.311l-.062-.012-26.882-8.092a5.778,5.778,0,1,1,3.433-11.035l19.02,6.107L328.3,436.244a6.414,6.414,0,0,1-.332-.837,6.74,6.74,0,0,1,12.343-5.254Z" transform="translate(-218.099 -218.731)" fill="#a0616a"/>
  </g>
</svg>